<?xml version="1.0" standalone="no"?>
<!DOCTYPE svg PUBLIC "-//W3C//DTD SVG 20010904//EN"
 "http://www.w3.org/TR/2001/REC-SVG-20010904/DTD/svg10.dtd">
<svg version="1.0" xmlns="http://www.w3.org/2000/svg"
 width="700.000000pt" height="700.000000pt" viewBox="0 0 700.000000 700.000000"
 preserveAspectRatio="xMidYMid meet">
<metadata>
Created by potrace 1.14, written by Peter Selinger 2001-2017
</metadata>
<g transform="translate(0.000000,700.000000) scale(0.100000,-0.100000)"
fill="#000000" stroke="none">
<path d="M127 6987 c-53 -17 -102 -68 -116 -122 -16 -62 -16 -6667 0 -6730 14
-57 67 -110 124 -124 62 -16 6668 -16 6730 0 57 14 110 67 124 124 16 62 16
6668 0 6730 -14 57 -67 110 -124 124 -65 16 -6685 14 -6738 -2z m6771 -37 c18
-11 41 -34 52 -52 20 -33 20 -58 20 -3398 0 -3340 0 -3365 -20 -3398 -11 -18
-34 -41 -52 -52 -33 -20 -58 -20 -3398 -20 -3340 0 -3365 0 -3398 20 -18 11
-41 34 -52 52 -20 33 -20 58 -20 3398 0 3340 0 3365 20 3398 11 18 34 41 52
52 33 20 58 20 3398 20 3340 0 3365 0 3398 -20z"/>
<path d="M690 6385 c0 -13 319 -15 2810 -15 2491 0 2810 2 2810 15 0 13 -319
15 -2810 15 -2491 0 -2810 -2 -2810 -15z"/>
<path d="M690 5780 c0 -7 943 -10 2810 -10 1867 0 2810 3 2810 10 0 7 -943 10
-2810 10 -1867 0 -2810 -3 -2810 -10z"/>
<path d="M690 5260 c0 -7 943 -10 2810 -10 1867 0 2810 3 2810 10 0 7 -943 10
-2810 10 -1867 0 -2810 -3 -2810 -10z"/>
<path d="M690 4650 c0 -7 943 -10 2810 -10 1867 0 2810 3 2810 10 0 7 -943 10
-2810 10 -1867 0 -2810 -3 -2810 -10z"/>
<path d="M2198 4145 c-183 -46 -308 -185 -343 -381 -43 -241 25 -458 178 -571
146 -107 385 -121 565 -32 l62 30 0 70 0 69 -48 -34 c-86 -62 -144 -80 -262
-80 -95 -1 -111 2 -168 28 -113 52 -171 144 -194 308 -8 58 -8 99 1 165 21
151 81 247 189 300 53 26 66 28 172 28 104 -1 121 -4 175 -28 33 -16 77 -41
98 -58 l37 -30 0 70 c0 68 -1 70 -32 89 -101 62 -305 89 -430 57z"/>
<path d="M2973 4145 c-79 -22 -131 -51 -194 -112 -125 -119 -178 -336 -133
-550 43 -210 181 -346 381 -375 257 -37 463 100 528 352 21 82 21 263 0 345
-45 175 -162 299 -320 340 -73 18 -192 18 -262 0z m272 -122 c80 -42 142 -128
171 -235 18 -70 18 -239 -1 -311 -44 -169 -141 -256 -295 -265 -172 -9 -295
96 -336 287 -35 167 1 353 91 459 14 17 54 45 88 62 58 30 67 31 152 28 66 -3
101 -10 130 -25z"/>
<path d="M4083 4145 c-81 -22 -143 -58 -199 -117 -62 -64 -85 -103 -115 -188
-19 -55 -23 -86 -23 -205 -1 -159 17 -234 78 -329 73 -114 175 -178 314 -198
255 -37 468 106 527 353 19 82 19 255 0 337 -42 176 -161 306 -320 347 -73 18
-192 18 -262 0z m279 -127 c118 -70 178 -200 178 -388 0 -256 -111 -406 -310
-418 -59 -3 -87 0 -130 17 -148 56 -232 231 -217 451 10 145 64 260 150 318
64 44 94 52 192 49 78 -2 98 -7 137 -29z"/>
<path d="M4910 3630 l0 -510 65 0 65 0 0 204 0 203 143 6 c160 6 232 25 293
80 70 61 100 164 83 287 -17 116 -76 186 -190 221 -51 16 -92 19 -260 19
l-199 0 0 -510z m416 381 c58 -26 87 -72 92 -143 6 -81 -4 -123 -39 -163 -42
-47 -106 -65 -236 -65 l-103 0 0 195 0 195 123 0 c97 0 130 -4 163 -19z"/>
<path d="M2885 2456 c-170 -41 -296 -177 -336 -361 -16 -77 -16 -244 0 -315
44 -183 169 -318 331 -354 387 -88 662 216 585 647 -26 148 -112 280 -223 340
-96 52 -246 70 -357 43z m260 -123 c54 -28 121 -102 150 -166 13 -29 29 -91
36 -139 30 -217 -44 -407 -186 -481 -57 -29 -176 -35 -246 -12 -75 25 -158
109 -188 190 -46 124 -46 307 1 433 27 72 113 161 178 185 64 24 201 18 255
-10z"/>
<path d="M5460 2454 c-145 -39 -219 -129 -220 -269 -1 -168 78 -238 327 -291
186 -39 243 -84 243 -191 0 -64 -18 -103 -62 -137 -91 -68 -277 -62 -445 14
l-63 29 0 -68 0 -68 74 -22 c270 -80 519 -37 602 105 23 38 29 63 32 129 6
107 -13 166 -71 223 -55 54 -110 77 -267 112 -72 17 -148 39 -169 49 -84 44
-95 169 -20 238 76 70 266 71 424 3 l45 -19 0 64 0 64 -52 15 c-131 38 -283
45 -378 20z"/>
<path d="M1670 1940 l0 -510 60 0 60 0 0 425 c0 234 3 425 8 425 4 0 108 -192
231 -425 l225 -425 93 0 93 0 0 510 0 510 -65 0 -65 0 0 -427 c0 -260 -4 -423
-9 -418 -5 6 -108 197 -229 425 l-221 415 -90 3 -91 3 0 -511z"/>
<path d="M3390 2395 l0 -55 180 0 180 0 0 -455 0 -455 65 0 65 0 2 453 3 452
183 3 182 2 0 55 0 55 -430 0 -430 0 0 -55z"/>
<path d="M4390 1940 l0 -510 330 0 330 0 0 55 0 55 -265 0 -265 0 0 190 0 190
245 0 245 0 0 55 0 55 -245 0 -245 0 0 155 0 155 255 0 255 0 0 55 0 55 -320
0 -320 0 0 -510z"/>
<path d="M690 445 c0 -13 319 -15 2810 -15 2491 0 2810 2 2810 15 0 13 -319
15 -2810 15 -2491 0 -2810 -2 -2810 -15z"/>
</g>
</svg>
